<svg id="Layer_1" data-name="Layer 1" xmlns="http://www.w3.org/2000/svg" viewBox="0 0 160 50.32"><defs><style>.cls-1{fill:#231f20;}.cls-2{fill:#27587f;}.cls-3{fill:#ffde6a;}.cls-4{fill:#002d56;}.cls-5{fill:#ffd200;}.cls-6{fill:#6d6e71;}</style></defs><title>logo</title><path class="cls-1" d="M55.87,35.25c-0.59.15-1.25,0.29-2,.42a14.64,14.64,0,0,1-2.65.2,12.28,12.28,0,0,1-3.15-.42,8.53,8.53,0,0,1-2.87-1.36,7.16,7.16,0,0,1-2.09-2.46,7.85,7.85,0,0,1-.81-3.73A8.79,8.79,0,0,1,43,24.36a6.93,6.93,0,0,1,1.86-2.54,7.85,7.85,0,0,1,2.83-1.51,12,12,0,0,1,3.55-.5,11.59,11.59,0,0,1,2.34.23q1.13,0.23,2.27.57L55.51,24a8.87,8.87,0,0,0-2-.82,7.9,7.9,0,0,0-2.06-.27,5.06,5.06,0,0,0-2,.38,4.52,4.52,0,0,0-1.53,1,4.67,4.67,0,0,0-1,1.59,5.72,5.72,0,0,0-.34,2A5.13,5.13,0,0,0,47,30a4.47,4.47,0,0,0,1.07,1.55,4.57,4.57,0,0,0,1.64,1,6.33,6.33,0,0,0,2.09.33,8.89,8.89,0,0,0,2-.23A13.34,13.34,0,0,0,55.67,32Z"/><path class="cls-1" d="M56.07,27.84a10.49,10.49,0,0,1,.5-3.36A6.72,6.72,0,0,1,58,22a6.48,6.48,0,0,1,2.44-1.59,10.49,10.49,0,0,1,6.74,0A6.49,6.49,0,0,1,69.66,22a6.74,6.74,0,0,1,1.48,2.52,10.51,10.51,0,0,1,.5,3.36,10.44,10.44,0,0,1-.5,3.34,6.76,6.76,0,0,1-1.49,2.53,6.51,6.51,0,0,1-2.45,1.6,10.42,10.42,0,0,1-6.71,0,6.52,6.52,0,0,1-2.44-1.6,6.74,6.74,0,0,1-1.49-2.53A10.41,10.41,0,0,1,56.07,27.84Zm4.27,0a8.51,8.51,0,0,0,.2,1.86,5.18,5.18,0,0,0,.62,1.59,3.3,3.3,0,0,0,1.09,1.1,3.32,3.32,0,0,0,3.2,0,3.26,3.26,0,0,0,1.09-1.1,5.12,5.12,0,0,0,.62-1.59,8.51,8.51,0,0,0,.2-1.86,8.72,8.72,0,0,0-.2-1.9,5,5,0,0,0-.62-1.58,3.21,3.21,0,0,0-1.09-1.08,3.4,3.4,0,0,0-3.2,0,3.25,3.25,0,0,0-1.09,1.08,5.05,5.05,0,0,0-.62,1.58A8.72,8.72,0,0,0,60.34,27.84Z"/><path class="cls-1" d="M72.84,20.08H77V32.54h6.41v3.07H72.84V20.08Z"/><path class="cls-1" d="M97.49,29.71A7.1,7.1,0,0,1,97,32.47a5,5,0,0,1-1.39,1.91,5.9,5.9,0,0,1-2.16,1.12,10.67,10.67,0,0,1-5.54,0,5.87,5.87,0,0,1-2.16-1.12,5,5,0,0,1-1.39-1.91,7,7,0,0,1-.49-2.76V20.08H88V29a8.23,8.23,0,0,0,.12,1.46,3.73,3.73,0,0,0,.42,1.2,2.22,2.22,0,0,0,.81.82,3,3,0,0,0,2.63,0,2.23,2.23,0,0,0,.81-0.82,3.72,3.72,0,0,0,.42-1.2A8.34,8.34,0,0,0,93.35,29V20.08h4.14v9.63Z"/><path class="cls-1" d="M98.93,20.08h6.52l3.29,10.32h0l3.45-10.32h6.27V35.61h-4l0.06-11.92h0l-4,11.92h-3.8l-3.78-11.92h0L103,35.61h-4V20.08Z"/><path class="cls-1" d="M120.06,20.08h7.14a7.84,7.84,0,0,1,2,.24,5,5,0,0,1,1.6.72,3.29,3.29,0,0,1,1.06,1.22,3.8,3.8,0,0,1,.38,1.75,3.52,3.52,0,0,1-.71,2.32,4.37,4.37,0,0,1-2,1.3v0q3.14,0.65,3.14,3.43a3.88,3.88,0,0,1-2,3.64,5.77,5.77,0,0,1-1.95.68,13.06,13.06,0,0,1-2.12.18h-6.54V20.08Zm4.14,6.14h1.16a6.22,6.22,0,0,0,1-.08,3.35,3.35,0,0,0,.88-0.26,1.62,1.62,0,0,0,.63-0.5,1.29,1.29,0,0,0,.25-0.81,1.38,1.38,0,0,0-.24-0.85,1.42,1.42,0,0,0-.61-0.47,3,3,0,0,0-.87-0.2c-0.33,0-.66,0-1,0h-1.2v3.2Zm0,6.45h1.23a11,11,0,0,0,1.11-.06,3.38,3.38,0,0,0,1-.25,1.72,1.72,0,0,0,.71-0.54,1.57,1.57,0,0,0,.27-1,1.56,1.56,0,0,0-1-1.56,3.59,3.59,0,0,0-1-.23,10.26,10.26,0,0,0-1.08-.06H124.2v3.65Z"/><path class="cls-1" d="M147.29,29.71a7.05,7.05,0,0,1-.49,2.76,5,5,0,0,1-1.39,1.91,5.88,5.88,0,0,1-2.16,1.12,10.67,10.67,0,0,1-5.54,0,5.88,5.88,0,0,1-2.16-1.12,5,5,0,0,1-1.39-1.91,7.08,7.08,0,0,1-.49-2.76V20.08h4.14V29a8.23,8.23,0,0,0,.12,1.46,3.76,3.76,0,0,0,.42,1.2,2.24,2.24,0,0,0,.81.82,3,3,0,0,0,2.63,0,2.23,2.23,0,0,0,.81-0.82,3.72,3.72,0,0,0,.42-1.2,8.21,8.21,0,0,0,.12-1.46V20.08h4.14v9.63Z"/><path class="cls-1" d="M148.9,31.78a8.35,8.35,0,0,0,1.89.73,9.25,9.25,0,0,0,2.38.29,7.63,7.63,0,0,0,1-.06,2.67,2.67,0,0,0,.83-0.22,1.43,1.43,0,0,0,.57-0.47,1.32,1.32,0,0,0,.21-0.77,1.27,1.27,0,0,0-.54-1.11,5.55,5.55,0,0,0-1.36-.66c-0.54-.18-1.13-0.37-1.77-0.56a7.14,7.14,0,0,1-1.77-.78,4.29,4.29,0,0,1-1.36-1.35,4.14,4.14,0,0,1-.54-2.27,4.07,4.07,0,0,1,.62-2.32,4.52,4.52,0,0,1,1.59-1.46,7.12,7.12,0,0,1,2.17-.76,13,13,0,0,1,2.38-.22,14.67,14.67,0,0,1,2.18.16,10.4,10.4,0,0,1,1.83.42l-0.27,3.2a7,7,0,0,0-1.68-.55,9.46,9.46,0,0,0-1.77-.17c-0.27,0-.56,0-0.88,0a3.51,3.51,0,0,0-.9.18,1.84,1.84,0,0,0-.71.43,1.08,1.08,0,0,0-.29.8,1.06,1.06,0,0,0,.54,1,5.79,5.79,0,0,0,1.36.58l1.77,0.51a6.64,6.64,0,0,1,1.77.78,4.39,4.39,0,0,1,1.36,1.36,4.11,4.11,0,0,1,.55,2.25,4.91,4.91,0,0,1-.58,2.5,4.41,4.41,0,0,1-1.54,1.57,6.51,6.51,0,0,1-2.19.81,13.51,13.51,0,0,1-2.52.23,17.55,17.55,0,0,1-2.34-.17,13.45,13.45,0,0,1-2.29-.5Z"/><polygon class="cls-2" points="20.32 33.66 16.93 33.66 16.93 34.55 31.61 34.55 16.93 47.32 16.93 50.32 33.86 35.6 16.93 0 16.93 21.14 20.32 33.66"/><polygon class="cls-3" points="16.93 34.55 16.93 47.32 31.61 34.55 16.93 34.55"/><polygon class="cls-3" points="16.93 21.14 16.93 33.66 20.32 33.66 16.93 21.14"/><polygon class="cls-4" points="13.55 33.66 16.93 33.66 16.93 34.55 2.25 34.55 16.93 47.32 16.93 50.32 0 35.6 16.93 0 16.93 21.14 13.55 33.66"/><polygon class="cls-5" points="16.93 34.55 16.93 47.32 2.25 34.55 16.93 34.55"/><polygon class="cls-5" points="16.93 21.14 16.93 33.66 13.55 33.66 16.93 21.14"/><path class="cls-6" d="M42.74,41.06H44v5.28h2.43v1H42.74V41.06Z"/><path class="cls-6" d="M50,40.95a2.93,2.93,0,0,1,3.07,3.22,3.08,3.08,0,1,1-6.14,0A2.9,2.9,0,0,1,50,40.95Zm0,5.49c1.28,0,1.76-1.14,1.76-2.27S51.24,41.94,50,41.94s-1.76,1.13-1.76,2.24S48.71,46.44,50,46.44Z"/><path class="cls-6" d="M59.1,42.27a4.1,4.1,0,0,0-1.62-.33,2.13,2.13,0,0,0-2.27,2.27,2.06,2.06,0,0,0,2.13,2.24,3.39,3.39,0,0,0,.83-0.09V44.72H56.84v-1h2.53v3.38a7.9,7.9,0,0,1-2,.32c-2,0-3.44-1-3.44-3.13a3.11,3.11,0,0,1,3.44-3.35,6.19,6.19,0,0,1,1.84.26Z"/><path class="cls-6" d="M61.22,39.34h1.23l-1.23,1.31H60.48Zm-0.64,1.71h1.26v6.27H60.59V41.06Z"/><path class="cls-6" d="M66.56,42.21a3.24,3.24,0,0,0-1.27-.27,0.87,0.87,0,0,0-1,.87c0,1.09,2.75.63,2.75,2.73,0,1.37-1.09,1.89-2.35,1.89a5.51,5.51,0,0,1-1.61-.24l0.12-1.13a3,3,0,0,0,1.42.39,1,1,0,0,0,1.11-.81c0-1.19-2.75-.7-2.75-2.77a1.92,1.92,0,0,1,2.19-1.91,4.74,4.74,0,0,1,1.5.22Z"/><path class="cls-6" d="M69.32,42h-1.8v-1h4.85v1h-1.8v5.28H69.32V42Z"/><path class="cls-6" d="M73.06,41.06h1.26v6.27H73.06V41.06Z"/><path class="cls-6" d="M80.23,47.23a6.36,6.36,0,0,1-1.43.2c-2,0-3.44-1-3.44-3.13a3.11,3.11,0,0,1,3.44-3.35,4.15,4.15,0,0,1,1.42.26l-0.09,1.06a2.59,2.59,0,0,0-1.36-.33,2.09,2.09,0,0,0-2.1,2.27,2.06,2.06,0,0,0,2.13,2.24,3.49,3.49,0,0,0,1.37-.26Z"/><path class="cls-6" d="M82.95,41.06h1.42l2.46,6.27H85.43L84.9,45.89H82.36l-0.55,1.44h-1.3Zm0.69,1.26h0L82.71,44.9h1.83Z"/><path class="cls-6" d="M90,41.06h1.26v6.27H90V41.06Z"/><path class="cls-6" d="M92.56,41.06h1.54l2.39,4.69h0V41.06h1.2v6.27H96.18l-2.4-4.69h0v4.69h-1.2V41.06Z"/><path class="cls-6" d="M100.25,42h-1.8v-1h4.85v1h-1.8v5.28h-1.26V42Z"/><path class="cls-6" d="M104.1,41.06h3.7v1h-2.44v1.54h2.24v1h-2.24v1.76h2.46v1H104.1V41.06Z"/><path class="cls-6" d="M109,41.06h1.36c1.35,0,3,0,3,1.7A1.43,1.43,0,0,1,112,44.21v0a0.93,0.93,0,0,1,.66.65l1,2.45h-1.4l-0.75-2a0.78,0.78,0,0,0-.87-0.65h-0.4v2.6H109V41.06Zm1.26,2.67h0.41c0.62,0,1.33-.09,1.33-0.87s-0.7-.82-1.33-0.82h-0.41v1.69Z"/><path class="cls-6" d="M114.51,41.06h1.54l2.39,4.69h0V41.06h1.2v6.27h-1.54l-2.4-4.69h0v4.69h-1.2V41.06Z"/><path class="cls-6" d="M122.85,41.06h1.42l2.46,6.27h-1.39l-0.54-1.44h-2.54l-0.55,1.44h-1.3Zm0.69,1.26h0l-0.91,2.59h1.83Z"/><path class="cls-6" d="M132.1,47.23a6.36,6.36,0,0,1-1.43.2c-2,0-3.44-1-3.44-3.13a3.11,3.11,0,0,1,3.44-3.35,4.15,4.15,0,0,1,1.42.26L132,42.27a2.59,2.59,0,0,0-1.36-.33,2.09,2.09,0,0,0-2.1,2.27,2.06,2.06,0,0,0,2.13,2.24,3.49,3.49,0,0,0,1.37-.26Z"/><path class="cls-6" d="M132.92,41.06h1.26v6.27h-1.26V41.06Z"/><path class="cls-6" d="M138.28,40.95a2.93,2.93,0,0,1,3.07,3.22,3.08,3.08,0,1,1-6.14,0A2.9,2.9,0,0,1,138.28,40.95Zm0,5.49c1.28,0,1.76-1.14,1.76-2.27s-0.51-2.24-1.76-2.24-1.76,1.13-1.76,2.24S137,46.44,138.28,46.44Z"/><path class="cls-6" d="M142.44,41.06H144l2.39,4.69h0V41.06h1.2v6.27h-1.53l-2.4-4.69h0v4.69h-1.2V41.06Z"/><path class="cls-6" d="M150.78,41.06h1.42l2.46,6.27h-1.39l-0.54-1.44h-2.54l-0.55,1.44h-1.3Zm0.69,1.26h0l-0.91,2.59h1.83Z"/><path class="cls-6" d="M155.47,41.06h1.26v5.28h2.43v1h-3.69V41.06Z"/></svg>